<?xml version="1.0" standalone="no"?>
<!DOCTYPE svg PUBLIC "-//W3C//DTD SVG 20010904//EN"
 "http://www.w3.org/TR/2001/REC-SVG-20010904/DTD/svg10.dtd">
<svg version="1.0" xmlns="http://www.w3.org/2000/svg"
 width="512.000000pt" height="512.000000pt" viewBox="0 0 512.000000 512.000000"
 preserveAspectRatio="xMidYMid meet">

<g transform="translate(0.000000,512.000000) scale(0.100000,-0.100000)"
fill="#000000" stroke="none">
<path d="M990 5110 c-526 -48 -933 -459 -979 -987 -14 -159 -15 -3034 -1
-3158 50 -436 355 -798 776 -920 157 -45 189 -46 1844 -42 1710 3 1588 -1
1765 60 302 104 558 360 662 662 61 177 57 55 60 1765 3 1114 1 1593 -7 1664
-58 505 -451 899 -955 956 -106 12 -3033 11 -3165 0z m2469 -937 c125 -63 157
-214 66 -321 -68 -78 32 -73 -1370 -79 -1342 -7 -1312 -8 -1387 44 -48 33 -88
111 -88 173 0 58 38 138 82 170 71 52 16 51 1377 46 l1263 -5 57 -28z m254
-550 c296 -5 367 -9 367 -20 0 -7 -5 -13 -11 -13 -5 0 -7 5 -3 12 4 7 3 8 -5
4 -9 -6 -9 -11 1 -24 12 -14 10 -14 -10 -3 -18 9 -22 9 -20 -1 2 -7 -2 -12 -8
-11 -7 1 -10 -7 -8 -20 2 -12 2 -16 -2 -9 -4 8 -16 2 -39 -20 -18 -18 -31 -36
-28 -40 4 -8 -13 -12 -32 -8 -5 1 -7 -2 -3 -6 4 -4 0 -13 -10 -21 -13 -10 -13
-12 -2 -10 8 2 12 2 7 0 -4 -3 -4 -9 -1 -15 4 -5 -4 -4 -17 3 -22 11 -23 11
-10 -5 11 -13 12 -19 2 -29 -10 -9 -11 -8 -5 6 4 12 2 17 -7 15 -19 -4 -38
-22 -32 -30 4 -8 -12 -12 -30 -9 -5 1 -6 -3 -3 -8 4 -5 -1 -17 -10 -25 -8 -9
-12 -16 -7 -16 4 0 0 -5 -9 -11 -10 -5 -18 -16 -18 -23 0 -8 -7 -16 -15 -20
-8 -3 -15 -13 -15 -21 0 -9 -5 -13 -10 -10 -6 3 -13 0 -16 -8 -2 -7 -10 -14
-17 -15 -7 -1 -38 -6 -70 -12 -39 -7 -363 -10 -970 -8 -853 3 -915 4 -952 21
-82 37 -128 107 -129 197 0 103 66 185 169 211 38 9 1496 11 1978 2z m328 -76
c-10 -9 -11 -8 -5 6 3 10 9 15 12 12 3 -3 0 -11 -7 -18z m-43 -34 c-10 -2 -18
-9 -18 -15 0 -6 -3 -9 -6 -5 -10 10 6 27 24 26 15 -1 15 -2 0 -6z m-529 -475
c13 -2 26 -9 27 -16 1 -7 0 -8 -3 -2 -2 5 -9 10 -14 10 -6 0 -7 -4 -4 -10 3
-5 1 -10 -5 -10 -6 0 -9 -4 -6 -8 2 -4 -4 -14 -15 -20 -19 -12 -19 -12 -4 12
13 19 14 26 3 32 -7 4 -10 4 -6 -1 10 -11 -11 -47 -22 -40 -6 4 -7 -1 -3 -11
5 -14 3 -16 -13 -11 -18 7 -18 6 -1 -7 17 -13 17 -14 0 -21 -10 -5 -21 -7 -25
-7 -5 1 -8 -3 -8 -9 0 -6 -7 -9 -15 -6 -8 4 -17 1 -21 -5 -4 -7 -3 -8 4 -4 18
11 14 -10 -4 -25 -13 -10 -17 -10 -25 2 -5 8 -9 9 -9 4 0 -6 5 -16 12 -23 9
-9 9 -12 -1 -12 -7 0 -9 -5 -5 -12 4 -7 3 -8 -5 -4 -6 4 -9 11 -6 16 3 5 1 11
-3 14 -5 3 -8 -5 -8 -17 1 -12 0 -26 -3 -32 -3 -5 -7 -18 -8 -29 -9 -57 -73
-135 -129 -157 -37 -14 -908 -21 -1466 -12 l-496 8 -43 30 c-127 89 -118 292
16 363 17 8 44 19 60 23 27 7 2194 4 2254 -3z m-926 -605 c158 -3 287 -10 287
-14 0 -5 -6 -14 -14 -21 -12 -11 -12 -16 2 -32 13 -15 14 -17 2 -11 -21 13
-41 15 -35 4 4 -5 1 -17 -5 -26 -11 -16 -11 -16 -6 -1 3 10 0 20 -6 24 -7 5
-8 2 -3 -6 6 -10 4 -12 -9 -7 -13 5 -15 3 -7 -11 6 -13 1 -24 -21 -47 -17 -16
-27 -24 -23 -16 6 10 4 12 -4 7 -7 -5 -10 -14 -8 -20 3 -7 -1 -13 -8 -13 -7 0
-11 7 -8 16 3 12 2 12 -7 -2 -6 -9 -8 -22 -5 -27 4 -6 -1 -7 -11 -3 -11 4 -15
3 -10 -5 3 -6 2 -13 -4 -17 -5 -3 -10 -15 -10 -26 0 -27 -33 -90 -62 -115 -62
-57 -4 -54 -1041 -55 -649 0 -961 3 -980 10 -82 31 -138 112 -139 198 0 104
59 182 162 214 31 9 1585 11 1973 2z m302 -39 c-8 -6 -11 -15 -7 -19 4 -5 2
-5 -5 -1 -9 5 -10 13 -1 32 8 18 14 21 20 12 4 -8 2 -17 -7 -24z m310 -556
c144 -79 158 -280 26 -373 l-43 -30 -961 -3 -961 -2 -52 25 c-69 34 -106 90
-112 166 -9 115 47 195 158 230 14 4 450 7 970 6 860 -2 948 -3 975 -19z m608
-569 c83 -23 148 -112 148 -204 0 -63 -18 -110 -59 -151 -66 -66 -42 -64 -666
-64 -490 0 -572 2 -604 16 -183 76 -173 332 15 400 48 17 1105 20 1166 3z"/>
<path d="M3380 2939 c0 -5 5 -7 10 -4 6 3 10 8 10 11 0 2 -4 4 -10 4 -5 0 -10
-5 -10 -11z"/>
<path d="M2715 2300 c-3 -5 -1 -10 4 -10 6 0 11 5 11 10 0 6 -2 10 -4 10 -3 0
-8 -4 -11 -10z"/>
</g>
</svg>
