<?xml version="1.0" standalone="no"?>
<!DOCTYPE svg PUBLIC "-//W3C//DTD SVG 20010904//EN"
 "http://www.w3.org/TR/2001/REC-SVG-20010904/DTD/svg10.dtd">
<svg version="1.0" xmlns="http://www.w3.org/2000/svg"
 width="256.000000pt" height="256.000000pt" viewBox="0 0 256.000000 256.000000"
 preserveAspectRatio="xMidYMid meet">

<g transform="translate(0.000000,256.000000) scale(0.100000,-0.100000)"
fill="#000000" stroke="none">
<path d="M1014 2110 c-125 -44 -230 -151 -265 -268 -12 -40 -18 -46 -76 -72
-184 -84 -290 -297 -239 -485 16 -62 49 -128 90 -179 30 -38 30 -42 31 -145 0
-98 2 -111 32 -174 88 -186 295 -292 478 -246 42 11 45 10 90 -25 207 -158
518 -85 629 148 19 39 36 78 39 86 3 9 38 32 79 53 147 72 238 219 238 383 0
93 -54 227 -113 283 -25 22 -26 27 -20 106 13 184 -78 338 -247 418 -52 25
-81 32 -150 35 -47 2 -101 0 -120 -5 -32 -9 -41 -6 -98 33 -34 24 -85 50 -114
59 -70 20 -199 18 -264 -5z m250 -100 c96 -36 95 -37 -91 -145 -92 -53 -174
-104 -180 -113 -10 -12 -13 -82 -13 -269 0 -139 -3 -253 -7 -253 -5 0 -39 20
-78 44 l-70 43 0 235 0 235 35 69 c75 147 246 213 404 154z m453 -109 c61 -27
136 -102 164 -165 25 -59 38 -172 18 -164 -8 3 -88 49 -179 102 -90 53 -173
96 -183 96 -9 0 -114 -56 -231 -125 -118 -69 -217 -125 -220 -125 -3 0 -6 38
-6 83 0 67 3 87 18 99 29 26 349 207 384 217 54 17 176 7 235 -18z m-977 -652
c8 -5 108 -64 223 -130 114 -67 207 -124 207 -127 0 -9 -134 -82 -150 -82 -6
0 -91 46 -188 102 -114 66 -192 117 -219 146 -137 143 -109 389 56 493 l46 30
5 -211 c4 -172 8 -213 20 -221z m979 310 c97 -56 195 -119 218 -142 144 -138
126 -390 -35 -497 -25 -16 -49 -30 -54 -30 -4 0 -8 91 -8 203 0 139 -4 207
-11 214 -7 7 -108 67 -225 135 -117 68 -213 126 -214 130 0 5 138 87 149 88 2
0 83 -46 180 -101z m-334 -103 l90 -51 3 -122 3 -121 -101 -56 -100 -56 -100
57 -101 56 3 120 3 121 90 52 c50 29 97 52 105 52 8 0 56 -23 105 -52z m308
-181 l49 -28 -4 -241 c-3 -240 -3 -241 -30 -293 -32 -59 -87 -117 -138 -143
-51 -26 -146 -43 -199 -35 -46 6 -151 50 -151 63 1 4 75 49 166 101 91 52 172
100 180 108 11 12 14 63 14 275 l0 260 33 -20 c17 -11 54 -32 80 -47z m-217
-400 c-2 -7 -87 -60 -189 -118 -198 -115 -250 -133 -342 -121 -97 12 -182 62
-235 138 -44 64 -79 216 -50 216 6 0 85 -43 176 -96 91 -53 175 -96 187 -96
12 0 119 56 237 125 l215 125 3 -81 c2 -44 1 -86 -2 -92z"/>
</g>
</svg>
